<?xml version="1.0" standalone="no"?>
<!DOCTYPE svg PUBLIC "-//W3C//DTD SVG 20010904//EN"
 "http://www.w3.org/TR/2001/REC-SVG-20010904/DTD/svg10.dtd">
<svg version="1.0" xmlns="http://www.w3.org/2000/svg"
 width="512.000000pt" height="512.000000pt" viewBox="0 0 512.000000 512.000000"
 preserveAspectRatio="xMidYMid meet">

<g transform="translate(0.000000,512.000000) scale(0.100000,-0.100000)"
fill="#000000" stroke="none">
<path d="M723 4815 c-42 -30 -45 -47 -28 -177 39 -299 163 -718 304 -1023 74
-161 194 -386 221 -414 20 -20 66 -38 213 -80 103 -30 187 -60 187 -65 0 -6
-18 -75 -41 -153 -25 -87 -39 -152 -35 -167 11 -43 200 -260 240 -276 48 -18
96 15 96 66 0 28 -16 52 -91 139 l-90 105 50 175 c48 166 50 178 36 205 -16
31 -6 27 -320 120 -163 48 -134 17 -265 280 -137 274 -238 556 -304 843 -27
120 -31 145 -17 134 315 -272 670 -453 1018 -520 l112 -21 12 -46 c25 -93 93
-269 151 -390 74 -156 175 -338 205 -367 29 -30 68 -29 100 3 34 34 28 67 -33
169 -109 183 -218 433 -285 653 -36 119 -42 124 -159 136 -341 36 -772 262
-1106 579 -107 102 -135 117 -171 92z"/>
<path d="M4340 4823 c-8 -4 -59 -48 -114 -100 -338 -321 -759 -541 -1106 -579
-115 -12 -124 -19 -154 -121 -145 -486 -417 -940 -872 -1453 -125 -142 -382
-394 -529 -519 -60 -52 -120 -104 -133 -115 -29 -26 -28 -27 -87 125 -28 71
-59 132 -80 156 -94 110 -273 117 -382 16 -55 -53 -78 -108 -77 -193 0 -66 6
-89 48 -195 26 -66 76 -175 111 -242 l63 -122 -34 -26 c-32 -24 -36 -25 -56
-11 -49 35 -42 39 -386 -214 l-223 -163 -35 16 c-49 24 -135 22 -185 -3 -81
-42 -125 -144 -100 -233 15 -53 316 -471 368 -510 139 -105 338 6 321 180 l-5
48 240 175 c304 221 307 224 307 264 0 49 -24 76 -70 76 -34 0 -64 -19 -252
-156 -117 -86 -234 -172 -260 -191 l-47 -34 -46 63 c-25 34 -42 65 -37 69 19
17 607 442 617 445 6 3 28 -19 50 -48 107 -143 432 -446 534 -497 176 -90 381
39 381 239 0 103 -30 153 -149 249 -95 77 -127 108 -120 115 2 2 45 16 94 31
788 238 1486 923 1996 1963 104 210 112 241 79 277 -28 30 -79 33 -103 8 -8
-10 -63 -115 -122 -233 -261 -526 -523 -900 -857 -1226 -299 -292 -574 -472
-927 -605 -87 -33 -271 -89 -292 -89 -15 0 -229 293 -229 314 0 3 73 67 163
143 689 590 1221 1313 1430 1944 l42 125 111 22 c302 58 642 220 906 430 43
34 80 62 82 62 9 0 -100 -336 -165 -509 -38 -102 -69 -193 -69 -203 0 -27 45
-68 74 -68 47 0 72 38 134 205 75 199 169 496 217 683 31 122 35 147 25 171
-15 38 -55 57 -90 44z m-3214 -2692 c26 -16 39 -38 69 -118 138 -360 371 -683
652 -903 88 -69 108 -95 108 -142 0 -70 -69 -122 -138 -105 -30 8 -163 114
-271 217 -230 219 -448 552 -556 848 -36 99 -38 140 -9 176 38 48 93 58 145
27z m-894 -1193 c17 -14 306 -412 314 -432 3 -7 -4 -23 -14 -36 -35 -44 -56
-25 -219 200 -154 212 -172 248 -135 269 23 14 35 13 54 -1z"/>
<path d="M3995 2301 c-109 -28 -158 -82 -220 -240 -25 -64 -49 -122 -54 -130
-9 -14 -64 28 -284 221 -33 29 -56 41 -78 41 -40 0 -72 -33 -72 -74 0 -37 22
-60 235 -241 l118 -100 -21 -37 c-21 -37 -123 -182 -171 -242 l-27 -34 -123
61 c-68 34 -193 100 -278 148 -85 47 -162 86 -173 86 -48 0 -85 -82 -54 -123
14 -19 246 -151 405 -231 l111 -56 -47 -43 c-26 -24 -81 -71 -124 -105 -97
-78 -128 -135 -128 -232 0 -200 205 -329 381 -239 63 32 177 126 311 257 l116
114 29 -20 c25 -17 28 -26 25 -59 -5 -49 -13 -42 309 -278 l246 -179 -5 -48
c-10 -102 60 -196 160 -218 61 -13 110 -1 161 37 52 40 353 456 367 510 46
163 -117 302 -280 237 l-40 -16 -257 189 c-142 104 -268 195 -280 201 -32 17
-57 15 -87 -9 -31 -25 -35 -75 -8 -105 10 -10 134 -104 275 -208 l256 -188
-41 -59 c-23 -32 -46 -59 -50 -59 -5 0 -148 102 -318 226 -200 145 -308 230
-303 237 3 7 27 44 53 82 64 97 181 331 237 472 41 103 47 128 47 193 1 85
-22 140 -77 193 -60 56 -170 87 -242 68z m123 -167 c34 -23 55 -71 48 -109
-20 -103 -166 -412 -268 -564 -129 -191 -300 -380 -468 -515 -137 -110 -170
-118 -237 -51 -27 27 -33 41 -33 76 0 48 -4 44 200 221 243 212 451 521 570
846 29 79 65 112 124 112 23 0 52 -7 64 -16z m837 -1208 c14 -20 14 -29 4 -48
-14 -28 -264 -374 -292 -405 -39 -43 -108 -17 -94 36 4 16 263 378 300 419 27
29 62 28 82 -2z"/>
</g>
</svg>
